<svg width="939" height="282" viewBox="0 0 939 282" fill="none" xmlns="http://www.w3.org/2000/svg">
<mask id="mask0_0_1" style="mask-type:alpha" maskUnits="userSpaceOnUse" x="0" y="0" width="936" height="282">
<rect width="936" height="282" fill="#D9D9D9"/>
</mask>
<g mask="url(#mask0_0_1)">
<path d="M159.832 133.291C159.832 131.045 160.223 128.75 161.004 126.406C161.883 123.965 163.152 121.768 164.813 119.814C166.473 117.861 168.523 116.25 170.965 114.98C173.504 113.711 176.482 113.076 179.9 113.076C185.565 113.076 189.52 114.199 191.766 116.445C194.012 118.594 195.135 121.328 195.135 124.648C195.135 126.504 194.744 128.555 193.963 130.801C193.279 133.047 192.205 135.146 190.74 137.1C189.275 138.955 187.371 140.518 185.027 141.787C182.684 143.057 179.9 143.691 176.678 143.691C170.623 143.691 166.375 142.764 163.934 140.908C161.492 138.955 160.125 136.416 159.832 133.291ZM143.719 166.25C145.379 163.516 147.283 161.562 149.432 160.391C151.58 159.219 153.777 158.633 156.023 158.633C159.734 158.633 162.908 159.854 165.545 162.295C168.279 164.639 169.647 167.666 169.647 171.377C169.549 172.256 169.402 173.135 169.207 174.014C169.109 174.893 168.816 175.771 168.328 176.65C166.961 179.189 165.838 181.338 164.959 183.096C164.08 184.854 163.25 186.514 162.469 188.076C161.785 189.541 161.102 191.006 160.418 192.471C159.734 193.936 158.904 195.693 157.928 197.744C156.756 200.186 155.438 202.871 153.973 205.801C152.508 208.633 151.092 211.562 149.725 214.59C148.455 217.617 147.332 220.596 146.356 223.525C145.477 226.455 145.037 229.141 145.037 231.582C145.037 234.219 145.672 235.977 146.941 236.855C148.309 237.637 150.213 238.027 152.654 238.027C155.389 238.027 158.221 237.441 161.15 236.27C164.178 235.098 167.205 233.584 170.232 231.729C173.26 229.873 176.238 227.773 179.168 225.43C182.098 222.988 184.832 220.547 187.371 218.105C190.008 215.664 192.4 213.32 194.549 211.074C196.795 208.828 198.65 206.826 200.115 205.068C202.068 203.213 204.022 202.285 205.975 202.285C207.732 202.285 209.148 203.066 210.223 204.629C211.395 206.191 211.981 208.193 211.981 210.635C211.981 212.881 211.395 215.273 210.223 217.812C209.148 220.352 207.342 222.744 204.803 224.99C199.822 230.068 194.744 234.951 189.568 239.639C184.393 244.229 179.07 248.33 173.602 251.943C168.231 255.459 162.811 258.291 157.342 260.439C151.873 262.588 146.356 263.662 140.789 263.662C132.879 263.662 126.629 261.66 122.039 257.656C117.547 253.555 115.301 247.207 115.301 238.613C115.301 234.121 115.936 229.727 117.205 225.43C118.475 221.133 119.988 216.982 121.746 212.979C123.504 208.877 125.359 204.971 127.313 201.26C129.266 197.451 130.926 193.838 132.293 190.42C132.781 189.15 133.611 187.197 134.783 184.561C136.053 181.924 137.371 179.238 138.738 176.504C140.301 173.281 141.961 169.863 143.719 166.25Z" fill="#1DAA69"/>
<path d="M880.448 201.754C878.104 204.098 875.662 206.148 873.123 207.906C870.682 209.664 868.045 210.543 865.213 210.543C863.26 210.543 861.307 210.104 859.354 209.225C857.498 208.248 855.448 206.637 853.201 204.391C850.662 201.852 848.905 199.557 847.928 197.506C846.951 195.455 846.463 193.453 846.463 191.5C846.463 188.668 847.342 186.08 849.1 183.736C850.858 181.295 852.908 178.902 855.252 176.559L890.994 141.402L854.959 105.66C852.713 103.414 850.711 101.07 848.953 98.6289C847.293 96.0898 846.463 93.3555 846.463 90.4258C846.463 88.4727 846.903 86.5684 847.781 84.7129C848.758 82.7598 850.369 80.6602 852.615 78.4141C854.959 76.0703 857.156 74.3613 859.207 73.2871C861.258 72.2129 863.26 71.6758 865.213 71.6758C868.143 71.6758 870.78 72.6035 873.123 74.459C875.565 76.2168 877.908 78.2188 880.155 80.4648L926.151 126.168C928.69 128.707 930.838 131.148 932.596 133.492C934.354 135.738 935.233 138.277 935.233 141.109C935.233 142.672 934.94 144.137 934.354 145.504C933.865 146.871 933.182 148.189 932.303 149.459C931.424 150.729 930.448 151.9 929.373 152.975C928.397 154.049 927.42 155.074 926.444 156.051L880.448 201.754Z" fill="black"/>
<path d="M12.9552 155.051C11.9786 154.074 10.9532 153.049 9.87903 151.975C8.90247 150.9 7.97473 149.729 7.09583 148.459C6.21692 147.189 5.4845 145.871 4.89856 144.504C4.41028 143.137 4.16614 141.672 4.16614 140.109C4.16614 137.277 5.04504 134.738 6.80286 132.492C8.56067 130.148 10.7091 127.707 13.2482 125.168L59.2443 79.4648C61.4904 77.2188 63.7853 75.2168 66.129 73.459C68.5704 71.6035 71.256 70.6758 74.1857 70.6758C76.1388 70.6758 78.1407 71.2129 80.1915 72.2871C82.2423 73.3613 84.4396 75.0703 86.7833 77.4141C89.0294 79.6602 90.5919 81.7598 91.4708 83.7129C92.4474 85.5684 92.9357 87.4727 92.9357 89.4258C92.9357 92.3555 92.0568 95.0898 90.299 97.6289C88.6388 100.07 86.6857 102.414 84.4396 104.66L48.4044 140.402L84.1466 175.559C86.4904 177.902 88.5411 180.295 90.299 182.736C92.0568 185.08 92.9357 187.668 92.9357 190.5C92.9357 192.453 92.4474 194.455 91.4708 196.506C90.4943 198.557 88.7365 200.852 86.1974 203.391C83.9513 205.637 81.8517 207.248 79.8986 208.225C78.0431 209.104 76.1388 209.543 74.1857 209.543C71.3536 209.543 68.6681 208.664 66.129 206.906C63.6876 205.148 61.295 203.098 58.9513 200.754L12.9552 155.051Z" fill="black"/>
<path d="M760.166 215.16C759.385 216.82 758.506 218.529 757.529 220.287C756.651 221.947 755.528 223.51 754.16 224.975C752.891 226.342 751.377 227.465 749.619 228.344C747.959 229.32 746.006 229.809 743.76 229.809C741.319 229.809 738.584 229.125 735.557 227.758C731.553 226 728.672 224.047 726.914 221.898C725.156 219.75 724.131 217.504 723.838 215.16C723.838 212.328 724.131 209.887 724.717 207.836C725.401 205.785 726.182 203.637 727.061 201.391L798.545 34.1055C799.229 32.543 799.961 30.9316 800.742 29.2715C801.524 27.6113 802.451 26.1465 803.526 24.877C804.6 23.5098 805.82 22.3867 807.188 21.5078C808.653 20.5312 810.362 19.9453 812.315 19.75C814.365 19.75 816.221 19.8965 817.881 20.1895C819.639 20.4824 821.494 21.0195 823.447 21.8008C827.256 23.4609 829.99 25.3652 831.651 27.5137C833.311 29.5645 834.287 31.7617 834.58 34.1055C834.58 37.0352 834.238 39.623 833.555 41.8691C832.969 44.1152 832.237 46.2148 831.358 48.168L760.166 215.16Z" fill="black"/>
<path d="M283.8 83.0762L261.681 83.2227L261.974 200.557H284.972L314.269 142.695L283.8 83.0762ZM294.64 230H246.886C237.12 230 232.238 225.166 232.238 215.498V68.4277C232.238 58.6621 237.12 53.7793 246.886 53.7793L305.187 53.6328V53.9258H318.517C323.204 53.9258 327.062 56.7578 330.089 62.4219L363.927 127.168C366.466 132.148 367.736 137.08 367.736 141.963C367.736 147.041 366.417 152.07 363.781 157.051L330.968 221.943C327.941 227.412 324.034 230.146 319.249 230.146H296.544C295.958 230.146 295.323 230.098 294.64 230Z" fill="black"/>
<path d="M507.632 126.436C517.397 126.436 522.28 131.465 522.28 141.523C522.28 151.289 517.397 156.172 507.632 156.172H420.181V201.143L507.778 201.436C517.739 201.24 522.671 205.928 522.573 215.498C522.768 225.166 517.983 230 508.218 230H405.532C395.767 230 390.884 225.117 390.884 215.352L391.03 141.377C390.933 131.611 395.767 126.68 405.532 126.582L405.679 68.4277C405.679 58.6621 410.561 53.7793 420.327 53.7793L508.071 53.6328C517.837 53.6328 522.72 58.7598 522.72 69.0137C522.72 78.291 517.837 82.9297 508.071 82.9297H464.272V126.289L507.632 126.436Z" fill="black"/>
<path d="M693.79 54.5117C698.575 54.5117 700.968 56.9531 700.968 61.8359C700.968 63.4961 700.675 64.8633 700.089 65.9375L700.235 66.084L670.206 191.621L665.225 212.568L663.76 218.574C661.905 226.191 657.559 230 650.723 230C649.942 230 649.112 229.951 648.233 229.854V230H600.186V229.854C599.307 229.951 598.477 230 597.696 230C590.86 230 586.514 226.191 584.659 218.574L583.194 212.568L547.159 66.2305C546.866 65.0586 546.719 63.4473 546.719 61.3965C546.719 56.5137 549.161 54.0723 554.044 54.0723H592.423C593.302 53.9746 594.132 53.9258 594.913 53.9258C601.749 53.9258 606.094 57.7344 607.95 65.3516L638.858 191.621H639.005L668.594 65.6445C670.45 58.0273 674.796 54.2188 681.632 54.2188L693.79 54.5117Z" fill="black"/>
</g>
</svg>
